HIERARCHY
ROOT Hips
{
 OFFSET 0.000000 0.000000 0.000000
 CHANNELS 6 Xposition Yposition Zposition Yrotation Xrotation Zrotation
 JOINT Chest
 {
  OFFSET 0.000000 9.585900 0.002600
  CHANNELS 3 Yrotation Xrotation Zrotation
  JOINT Chest2
  {
   OFFSET 0.000000 9.601200 -0.005300
   CHANNELS 3 Yrotation Xrotation Zrotation
   JOINT Chest3
   {
    OFFSET 0.000000 9.561800 0.000000
    CHANNELS 3 Yrotation Xrotation Zrotation
    JOINT Chest4
    {
     OFFSET 0.000000 9.552100 0.000000
     CHANNELS 3 Yrotation Xrotation Zrotation
     JOINT Neck
     {
      OFFSET 0.000000 14.453000 0.000000
      CHANNELS 3 Yrotation Xrotation Zrotation
      JOINT Head
      {
       OFFSET 0.000000 8.936500 -0.011300
       CHANNELS 3 Yrotation Xrotation Zrotation
       End Site
       {
        OFFSET 0.000000 17.073600 -0.006000
       }
      }
     }
     JOINT RightCollar
     {
      OFFSET -2.921100 9.558500 0.000000
      CHANNELS 3 Yrotation Xrotation Zrotation
      JOINT RightShoulder
      {
       OFFSET -13.519700 0.000000 0.000000
       CHANNELS 3 Yrotation Xrotation Zrotation
       JOINT RightElbow
       {
        OFFSET 0.000000 -29.696600 0.000000
        CHANNELS 3 Yrotation Xrotation Zrotation
        JOINT RightWrist
        {
         OFFSET 0.000000 -24.004700 0.000000
         CHANNELS 3 Yrotation Xrotation Zrotation
         End Site
         {
          OFFSET 0.000000 -17.728500 0.000000
         }
        }
       }
      }
     }
     JOINT LeftCollar
     {
      OFFSET 2.921100 9.558500 0.000000
      CHANNELS 3 Yrotation Xrotation Zrotation
      JOINT LeftShoulder
      {
       OFFSET 13.519700 0.000000 0.000000
       CHANNELS 3 Yrotation Xrotation Zrotation
       JOINT LeftElbow
       {
        OFFSET 0.000000 -29.696600 0.000000
        CHANNELS 3 Yrotation Xrotation Zrotation
        JOINT LeftWrist
        {
         OFFSET 0.000000 -24.004700 0.000000
         CHANNELS 3 Yrotation Xrotation Zrotation
         End Site
         {
          OFFSET 0.000000 -17.728500 0.000000
         }
        }
       }
      }
     }
    }
   }
  }
 }
 JOINT RightHip
 {
  OFFSET -7.771700 -0.012900 -0.001300
  CHANNELS 3 Yrotation Xrotation Zrotation
  JOINT RightKnee
  {
   OFFSET 0.000000 -40.869800 0.001200
   CHANNELS 3 Yrotation Xrotation Zrotation
   JOINT RightAnkle
   {
    OFFSET 0.000000 -39.717900 0.002100
    CHANNELS 3 Yrotation Xrotation Zrotation
    JOINT RightToe
    {
     OFFSET 0.000000 -4.965400 11.033500
     CHANNELS 3 Yrotation Xrotation Zrotation
     End Site
     {
      OFFSET 0.000000 -1.423100 5.872300
     }
    }
   }
  }
 }
 JOINT LeftHip
 {
  OFFSET 7.771700 -0.012900 -0.001300
  CHANNELS 3 Yrotation Xrotation Zrotation
  JOINT LeftKnee
  {
   OFFSET 0.000000 -40.869800 0.001200
   CHANNELS 3 Yrotation Xrotation Zrotation
   JOINT LeftAnkle
   {
    OFFSET 0.000000 -39.717900 0.002100
    CHANNELS 3 Yrotation Xrotation Zrotation
    JOINT LeftToe
    {
     OFFSET 0.000000 -4.965400 11.033500
     CHANNELS 3 Yrotation Xrotation Zrotation
     End Site
     {
      OFFSET 0.000000 -1.423100 5.872300
     }
    }
   }
  }
 }
}
MOTION
Frames: 16
Frame Time: 0.008333
0.000000 85.388000 0.000000 0.000000 -5.767877 0.000000 0.000000 11.653817 0.000000 0.000000 -5.885947 0.000000 0.000000 -0.000000 0.000000 0.000000 -0.000000 0.000000 0.000000 12.528835 0.000000 0.000000 0.711642 0.000000 0.000000 -0.000000 0.000000 0.000000 0.000000 -90.000000 0.000000 -2.309062 0.000000 0.000000 2.309062 0.000000 0.000000 -0.000000 0.000000 0.000000 -0.000000 90.000000 0.000000 -2.309062 0.000000 0.000000 2.309062 0.000000 0.000000 8.520406 0.000000 0.000000 1.905762 0.000000 -0.000000 -4.658285 0.000000 0.000000 -0.000000 0.000000 0.000000 8.520406 0.000000 0.000000 1.905762 0.000000 -0.000000 -4.658285 0.000000 0.000000 -0.000000 0.000000
-236.659495 57.520597 140.203526 178.299486 -28.540364 -1.465554 1.374580 18.915126 2.336013 0.118233 2.234625 0.284437 0.187253 3.679683 0.460780 1.076263 16.397247 2.186663 -2.749507 14.432077 -3.498602 -3.880960 -9.047268 -5.532156 3.227418 -2.587152 -0.304847 10.462571 -15.375994 -20.407008 141.441355 -73.499074 -102.716299 14.984169 -21.579909 -47.239817 -6.996120 -4.078663 -2.003619 4.533266 -8.814097 -0.767934 17.669449 -68.901446 -54.961544 -7.362721 6.313011 10.836299 4.764423 -47.445519 -1.463562 -14.378550 67.853541 -20.833686 4.419373 23.966821 6.171191 -0.725584 -16.592823 5.486851 -7.093784 -44.886764 2.393393 31.873807 69.712718 33.861375 -14.866448 2.253888 -4.983181 0.039285 0.233139 0.013621
-236.657800 57.521516 140.203103 178.294424 -28.549944 -1.467825 1.376909 18.922535 2.336667 0.112906 2.234044 0.280311 0.186663 3.680976 0.459951 1.081737 16.398908 2.188182 -2.764537 14.422371 -3.502985 -3.916554 -9.074292 -5.540428 3.193720 -2.599360 -0.315006 10.492505 -15.371659 -20.402027 141.447687 -73.501880 -102.720409 14.986609 -21.581422 -47.245413 -7.007298 -4.084488 -2.004554 4.501754 -8.819142 -0.772728 17.681134 -68.883477 -54.965815 -7.366437 6.308162 10.870844 4.728174 -47.435030 -1.443537 -14.371757 67.848307 -20.828275 4.426347 23.966425 6.164119 -0.720499 -16.592320 5.474842 -7.097144 -44.878049 2.400604 31.877720 69.716162 33.865798 -14.868708 2.253359 -4.984105 0.039502 0.232588 0.012747
-236.655964 57.522935 140.202174 178.301865 -28.562918 -1.475350 1.368642 18.933286 2.337031 0.106586 2.228426 0.271878 0.184773 3.680558 0.455692 1.092530 16.406983 2.197374 -2.819221 14.394527 -3.533385 -3.875689 -9.059109 -5.525876 3.189976 -2.602676 -0.313312 10.496025 -15.372658 -20.418986 141.379391 -73.475574 -102.667555 14.966513 -21.601313 -47.241513 -7.014237 -4.088162 -2.006626 4.506091 -8.817605 -0.766657 17.691370 -68.881289 -55.003373 -7.358265 6.308690 10.880243 4.635159 -47.417422 -1.406794 -14.388781 67.837601 -20.851832 4.463059 23.944457 6.142481 -0.720338 -16.577666 5.460611 -7.109883 -44.866079 2.405589 31.886382 69.719696 33.874246 -14.864932 2.250591 -4.984126 0.030607 0.233276 0.011791
-236.654517 57.524252 140.201811 178.303294 -28.571699 -1.476147 1.361862 18.934171 2.326581 0.109289 2.232662 0.275982 0.186358 3.682611 0.457774 1.084763 16.403265 2.183593 -2.828557 14.391928 -3.534130 -3.910925 -9.074639 -5.530735 3.189887 -2.601356 -0.302509 10.498409 -15.375507 -20.438919 141.384973 -73.470472 -102.681060 14.998982 -21.595742 -47.242567 -7.040238 -4.091871 -2.005698 4.515646 -8.817205 -0.753862 17.705917 -68.879407 -55.014860 -7.351980 6.310055 10.887646 4.591804 -47.404757 -1.391042 -14.380501 67.831456 -20.847936 4.472948 23.935030 6.139702 -0.736262 -16.570559 5.449880 -7.119052 -44.857466 2.407945 31.897734 69.718171 33.882689 -14.861321 2.252651 -4.985362 0.025800 0.230784 0.010834
-236.652535 57.525569 140.202008 178.298461 -28.576131 -1.475568 1.357880 18.932642 2.319905 0.099548 2.227332 0.268904 0.196433 3.686882 0.462459 1.066977 16.398184 2.166040 -2.807195 14.402622 -3.523644 -3.933080 -9.081655 -5.543982 3.191295 -2.607954 -0.298495 10.515571 -15.364916 -20.431189 141.354869 -73.455099 -102.659250 14.998274 -21.598806 -47.242546 -7.027353 -4.085674 -1.994813 4.477503 -8.836477 -0.758334 17.694752 -68.860872 -54.956150 -7.352745 6.304555 10.881882 4.554616 -47.395726 -1.372150 -14.339057 67.827598 -20.820437 4.479530 23.925092 6.148563 -0.750272 -16.561152 5.436509 -7.128120 -44.851740 2.413560 31.936498 69.707951 33.926400 -14.882433 2.251020 -5.004957 0.032841 0.228835 0.016286
-236.647925 57.527948 140.200853 178.295827 -28.589281 -1.489885 1.355267 18.939923 2.328058 0.101224 2.229017 0.267234 0.193838 3.685248 0.462653 1.066106 16.402288 2.160553 -2.801233 14.403106 -3.520970 -3.943173 -9.079994 -5.553531 3.200447 -2.609081 -0.292970 10.517611 -15.364685 -20.431092 141.304868 -73.432913 -102.619055 14.997811 -21.600986 -47.242780 -7.024169 -4.092552 -1.991491 4.471826 -8.843364 -0.763060 17.683903 -68.858319 -54.943477 -7.347704 6.305606 10.882956 4.504943 -47.380019 -1.341999 -14.356299 67.820716 -20.811590 4.460863 23.917680 6.091604 -0.726399 -16.552290 5.438583 -7.158135 -44.832182 2.447802 31.946252 69.705668 33.928900 -14.890420 2.240157 -5.011345 0.039034 0.234685 0.016316
-236.644080 57.530325 140.200063 178.291833 -28.598386 -1.497650 1.355380 18.946618 2.329489 0.102170 2.227695 0.269070 0.190277 3.686945 0.458180 1.073395 16.404010 2.165101 -2.812085 14.404856 -3.531358 -3.932327 -9.073795 -5.557865 3.183228 -2.613818 -0.301342 10.525095 -15.372930 -20.427818 141.295307 -73.427619 -102.605900 14.989936 -21.604587 -47.240977 -7.027985 -4.101140 -1.993948 4.469075 -8.849027 -0.763456 17.711160 -68.867512 -54.996136 -7.338533 6.321699 10.919294 4.474705 -47.368446 -1.324965 -14.361757 67.814057 -20.796209 4.444570 23.919433 6.051282 -0.709462 -16.550471 5.438755 -7.169251 -44.818444 2.464632 31.951790 69.705240 33.932621 -14.884712 2.230585 -5.012357 0.037983 0.240097 0.015195
-236.641731 57.532558 140.199680 178.286637 -28.602831 -1.494855 1.351824 18.944874 2.321212 0.107869 2.232507 0.273009 0.183922 3.682392 0.452967 1.071260 16.404811 2.160938 -2.805937 14.413630 -3.533297 -3.900642 -9.027349 -5.575295 3.168854 -2.618380 -0.310797 10.534099 -15.377007 -20.416853 141.314159 -73.433758 -102.614811 14.996906 -21.599027 -47.242497 -7.024211 -4.102473 -1.996281 4.470547 -8.848506 -0.756256 17.732238 -68.869149 -55.022226 -7.344700 6.321634 10.921715 4.454629 -47.360499 -1.324574 -14.352410 67.807623 -20.773241 4.442616 23.919736 6.028040 -0.721401 -16.547334 5.438872 -7.167463 -44.812125 2.464621 31.957940 69.703861 33.937350 -14.875737 2.230578 -5.010127 0.032786 0.238951 0.012718
-236.640499 57.534950 140.199105 178.288930 -28.606551 -1.488071 1.348275 18.944310 2.313214 0.107341 2.232281 0.272179 0.183107 3.676465 0.447698 1.066381 16.410475 2.157390 -2.795537 14.428344 -3.534272 -3.866710 -8.976740 -5.583332 3.163352 -2.620710 -0.313155 10.536186 -15.383110 -20.413475 141.283147 -73.426044 -102.584040 15.019159 -21.590504 -47.261678 -7.024548 -4.102999 -1.999227 4.470360 -8.848164 -0.746873 17.737159 -68.867085 -55.025067 -7.344949 6.311253 10.921273 4.437674 -47.351989 -1.335091 -14.323070 67.804656 -20.741192 4.450645 23.918085 6.024135 -0.733168 -16.545790 5.432657 -7.162396 -44.808474 2.451852 31.974276 69.699105 33.957279 -14.881579 2.233459 -5.015463 0.036508 0.235377 0.013589
-236.638368 57.537427 140.198575 178.289478 -28.608749 -1.485116 1.346862 18.941495 2.307895 0.107185 2.231938 0.271484 0.184093 3.677960 0.447761 1.067938 16.403953 2.145762 -2.769883 14.474299 -3.532448 -3.854037 -8.944007 -5.576083 3.149996 -2.617945 -0.303323 10.530573 -15.398582 -20.409174 141.247528 -73.428232 -102.536559 15.012073 -21.596482 -47.263912 -7.032668 -4.096449 -1.995367 4.472424 -8.857943 -0.745067 17.754285 -68.865555 -55.044939 -7.349114 6.296863 10.917225 4.434975 -47.347458 -1.340419 -14.337396 67.801568 -20.745598 4.444657 23.919580 6.011876 -0.730722 -16.546669 5.431116 -7.160466 -44.806019 2.445333 31.976118 69.697721 33.964205 -14.878894 2.236790 -5.020029 0.037535 0.232345 0.013507
-236.633164 57.541294 140.195819 178.296018 -28.625349 -1.502339 1.346800 18.948554 2.317382 0.108116 2.236071 0.274606 0.183382 3.681921 0.449781 1.069586 16.402166 2.141170 -2.761963 14.489025 -3.529046 -3.813161 -8.876065 -5.585464 3.140464 -2.622912 -0.299450 10.537000 -15.401077 -20.402937 141.204684 -73.418951 -102.503240 15.001393 -21.598987 -47.259299 -7.037313 -4.095223 -1.994171 4.473245 -8.858118 -0.741634 17.817324 -68.877111 -55.107199 -7.349192 6.312187 10.922980 4.391250 -47.328148 -1.326417 -14.366690 67.801629 -20.726323 4.416857 23.907783 5.930225 -0.704994 -16.538121 5.442445 -7.171748 -44.785754 2.456540 31.984556 69.693206 33.979688 -14.871219 2.241539 -5.019439 0.026300 0.228662 0.010692
-236.630212 57.544188 140.194681 178.297848 -28.628911 -1.503512 1.345316 18.948791 2.314647 0.108339 2.233092 0.271117 0.184112 3.684438 0.452588 1.069906 16.405506 2.140507 -2.751633 14.502336 -3.526427 -3.763413 -8.796174 -5.595838 3.138258 -2.628966 -0.295221 10.539644 -15.400844 -20.398658 141.159167 -73.409789 -102.467749 15.003265 -21.592959 -47.274424 -7.040327 -4.096168 -1.993110 4.475701 -8.868998 -0.745999 17.802920 -68.870351 -55.086050 -7.341536 6.306183 10.929772 4.372146 -47.323814 -1.331802 -14.364066 67.803770 -20.701103 4.403842 23.906966 5.904052 -0.694838 -16.538346 5.433932 -7.169055 -44.782354 2.455305 31.994114 69.691198 33.995546 -14.883498 2.245726 -5.022475 0.032521 0.222928 0.009464
-236.629009 57.546863 140.193823 178.300011 -28.628570 -1.493984 1.339484 18.946931 2.301792 0.108731 2.234072 0.271692 0.183293 3.683748 0.447758 1.071949 16.409750 2.143080 -2.731991 14.532019 -3.526943 -3.717284 -8.722037 -5.599916 3.138570 -2.634189 -0.292045 10.540564 -15.402750 -20.395736 141.128283 -73.406882 -102.445902 14.997810 -21.593436 -47.272389 -7.044804 -4.105008 -1.996252 4.483625 -8.874091 -0.746142 17.790472 -68.863539 -55.070374 -7.331926 6.305187 10.936501 4.357801 -47.320354 -1.357802 -14.307454 67.807292 -20.635783 4.425514 23.902256 5.907686 -0.715429 -16.537439 5.420395 -7.157930 -44.783736 2.440926 31.998951 69.689621 34.000150 -14.876652 2.253297 -5.025606 0.024973 0.217233 0.014261
-236.626178 57.549782 140.192718 178.298578 -28.628964 -1.492392 1.340213 18.946912 2.300468 0.108220 2.233555 0.270777 0.183043 3.685986 0.447554 1.072415 16.413225 2.141481 -2.706986 14.566171 -3.524739 -3.671040 -8.642225 -5.603459 3.137242 -2.646004 -0.288371 10.544186 -15.399513 -20.393162 141.096919 -73.418964 -102.430247 15.004614 -21.599289 -47.262031 -7.063197 -4.123906 -1.997042 4.505337 -8.867519 -0.740884 17.817321 -68.849076 -55.100122 -7.331652 6.307130 10.953622 4.356169 -47.318661 -1.361588 -14.318901 67.806584 -20.634782 4.420064 23.905217 5.893954 -0.712702 -16.540869 5.418970 -7.154960 -44.782779 2.440255 32.004752 69.688120 34.007265 -14.874196 2.258299 -5.028130 0.030618 0.213831 0.015144
-236.622955 57.552818 140.191498 178.295065 -28.628847 -1.492809 1.341215 18.946310 2.300175 0.106561 2.235751 0.268756 0.187142 3.684896 0.450471 1.072026 16.415167 2.140512 -2.682135 14.609226 -3.524204 -3.618393 -8.559063 -5.604041 3.149875 -2.653192 -0.291186 10.532087 -15.397126 -20.387696 141.089741 -73.421464 -102.426508 14.995462 -21.596400 -47.263751 -7.072916 -4.134888 -1.994804 4.513956 -8.859649 -0.743412 17.823665 -68.837327 -55.104657 -7.326484 6.302643 10.970358 4.340757 -47.315889 -1.366292 -14.313559 67.804921 -20.603763 4.405902 23.901116 5.862106 -0.711689 -16.535171 5.416019 -7.149471 -44.781698 2.442054 31.999791 69.687657 34.008097 -14.875840 2.262242 -5.032746 0.031629 0.208957 0.016462
